<svg width="43" height="42" viewBox="0 0 43 42" fill="none" xmlns="http://www.w3.org/2000/svg">
<path d="M36.0093 7.72075L35.6587 8.07715L35.6592 8.07771L36.0093 7.72075ZM32.6593 16.2997L33.0096 16.6565L33.0267 16.6396L33.0422 16.6211L32.6593 16.2997ZM32.5189 16.4375L32.8278 16.8307L32.8495 16.8136L32.8692 16.7943L32.5189 16.4375ZM32.6399 14.5767L33.0157 14.2468L33.0092 14.2394L33.0024 14.2323L32.6399 14.5767ZM31.7116 14.1287L31.7607 13.6311L31.749 13.6299L31.7373 13.6293L31.7116 14.1287ZM30.7271 14.4733L31.0356 14.8668L31.0501 14.8554L31.0637 14.843L30.7271 14.4733ZM22.8143 20.6762L22.5058 20.2826L22.4986 20.2884L22.8143 20.6762ZM19.3045 20.6762L19.6173 20.2861L19.6134 20.283L19.3045 20.6762ZM11.4075 14.4733L11.7164 14.0801L11.7089 14.0742L11.7013 14.0687L11.4075 14.4733ZM9.65262 14.5939L10.003 14.9507L10.0103 14.9433L9.65262 14.5939ZM9.52802 16.3169L9.13328 16.6238L9.15442 16.651L9.17909 16.675L9.52802 16.3169ZM9.75791 16.5409L9.40898 16.899L9.43026 16.9198L9.45385 16.9378L9.75791 16.5409ZM17.7427 22.6576L18.0481 22.2618L18.0467 22.2607L17.7427 22.6576ZM24.6025 22.6576L24.9083 23.0533L24.9115 23.0508L24.6025 22.6576ZM36.36 7.36434C34.5993 5.63198 32.2088 4.66895 29.7268 4.66895V5.66895C31.9514 5.66895 34.0886 6.53232 35.6587 8.07715L36.36 7.36434ZM39.1083 13.8702C39.1083 11.4254 38.1213 9.0918 36.3595 7.36378L35.6592 8.07771C37.2317 9.61999 38.1083 11.6973 38.1083 13.8702H39.1083ZM39.1083 27.4821V13.8702H38.1083V27.4821H39.1083ZM29.7268 36.6834C34.8908 36.6834 39.1083 32.5754 39.1083 27.4821H38.1083C38.1083 32.0033 34.3586 35.6834 29.7268 35.6834V36.6834ZM12.3903 36.6834H29.7268V35.6834H12.3903V36.6834ZM3.0105 27.4821C3.0105 32.5753 7.22612 36.6834 12.3903 36.6834V35.6834C7.75858 35.6834 4.0105 32.0034 4.0105 27.4821H3.0105ZM3.0105 13.8702V27.4821H4.0105V13.8702H3.0105ZM12.3903 4.66895C7.20792 4.66895 3.0105 8.77767 3.0105 13.8702H4.0105C4.0105 9.3483 7.74168 5.66895 12.3903 5.66895V4.66895ZM29.7268 4.66895H12.3903V5.66895H29.7268V4.66895ZM32.309 15.9429L32.1686 16.0808L32.8692 16.7943L33.0096 16.6565L32.309 15.9429ZM32.2642 14.9066C32.5382 15.2186 32.5388 15.6655 32.2763 15.9782L33.0422 16.6211C33.6186 15.9345 33.6192 14.9341 33.0157 14.2468L32.2642 14.9066ZM31.6625 14.6263C31.8982 14.6495 32.1202 14.7556 32.2775 14.9211L33.0024 14.2323C32.6718 13.8843 32.2235 13.6768 31.7607 13.6311L31.6625 14.6263ZM31.0637 14.843C31.2262 14.6951 31.4454 14.6156 31.6859 14.628L31.7373 13.6293C31.2408 13.6038 30.758 13.7691 30.3905 14.1035L31.0637 14.843ZM23.1228 21.0697L31.0356 14.8668L30.4186 14.0798L22.5058 20.2827L23.1228 21.0697ZM18.9917 21.0663C20.2067 22.0404 21.9269 22.0435 23.13 21.0639L22.4986 20.2884C21.666 20.9664 20.4696 20.9694 19.6173 20.2861L18.9917 21.0663ZM11.0987 14.8665L18.9957 21.0694L19.6134 20.283L11.7164 14.0801L11.0987 14.8665ZM10.0103 14.9433C10.2817 14.6655 10.7572 14.619 11.1137 14.8779L11.7013 14.0687C10.9662 13.5349 9.9326 13.5918 9.29498 14.2445L10.0103 14.9433ZM9.92276 16.01C9.67942 15.697 9.70708 15.2411 10.0029 14.9507L9.30232 14.2371C8.65051 14.8771 8.57289 15.903 9.13328 16.6238L9.92276 16.01ZM10.1068 16.1828L9.87695 15.9588L9.17909 16.675L9.40898 16.899L10.1068 16.1828ZM18.0467 22.2607L10.062 16.144L9.45385 16.9378L17.4386 23.0546L18.0467 22.2607ZM21.1647 23.3293C20.0292 23.3293 18.9447 22.9534 18.0481 22.2618L17.4373 23.0535C18.5062 23.8781 19.8048 24.3293 21.1647 24.3293V23.3293ZM24.2968 22.262C23.4036 22.9523 22.2986 23.3293 21.1647 23.3293V24.3293C22.5193 24.3293 23.8395 23.8793 24.9083 23.0533L24.2968 22.262ZM32.2099 16.0444L24.2936 22.2645L24.9115 23.0508L32.8278 16.8307L32.2099 16.0444Z" fill="#7990FB"/>
</svg>
