<svg width="100" height="100" viewBox="0 0 100 100" fill="none" xmlns="http://www.w3.org/2000/svg">
<g id="clarity:block-quote-line" clip-path="url(#clip0_1_3436)">
<path id="Vector" d="M32.9444 45.9723C30.8896 45.9793 28.8712 46.515 27.0833 47.5279C29.6004 41.0126 33.7752 35.2676 39.1944 30.8612C39.5045 30.6059 39.7612 30.292 39.95 29.9374C40.1387 29.5828 40.2558 29.1946 40.2945 28.7947C40.3332 28.3949 40.2927 27.9914 40.1755 27.6072C40.0582 27.2231 39.8665 26.8657 39.6111 26.5557C39.3558 26.2456 39.0418 25.9889 38.6873 25.8001C38.3327 25.6114 37.9444 25.4943 37.5446 25.4556C37.1448 25.4169 36.7413 25.4574 36.3571 25.5746C35.9729 25.6919 35.6156 25.8837 35.3056 26.139C24.1944 35.1668 19.25 47.6668 19.25 55.4168C19.2691 58.157 20.0858 60.8324 21.6001 63.1163C23.1145 65.4002 25.2611 67.1937 27.7778 68.2779C29.4066 69.0669 31.1902 69.4844 33 69.5001C34.5929 69.5775 36.185 69.3307 37.6797 68.7744C39.1744 68.2182 40.5405 67.3641 41.6953 66.2641C42.85 65.1641 43.7694 63.8411 44.3975 62.3752C45.0257 60.9093 45.3496 59.3311 45.3496 57.7362C45.3496 56.1414 45.0257 54.5632 44.3975 53.0973C43.7694 51.6314 42.85 50.3083 41.6953 49.2083C40.5405 48.1083 39.1744 47.2543 37.6797 46.6981C36.185 46.1418 34.5929 45.8949 33 45.9723H32.9444Z" fill="#7990FB"/>
<path id="Vector_2" d="M63.8889 45.9721C61.8337 45.9765 59.8147 46.5124 58.0278 47.5276C60.5439 41.0192 64.7077 35.276 70.1111 30.8609C70.4493 30.6172 70.7341 30.3067 70.9478 29.9488C71.1616 29.5909 71.2998 29.1929 71.354 28.7796C71.4083 28.3662 71.3773 27.9461 71.2631 27.5451C71.1489 27.1442 70.9538 26.7708 70.6899 26.4481C70.426 26.1253 70.0989 25.86 69.7286 25.6684C69.3583 25.4768 68.9527 25.363 68.5368 25.3341C68.1209 25.3051 67.7035 25.3615 67.3102 25.4999C66.9169 25.6383 66.5561 25.8557 66.25 26.1387C55.1389 35.1665 50.1945 47.6665 50.1945 55.4165C50.2076 58.1257 51.0004 60.7739 52.4781 63.0447C53.9559 65.3154 56.056 67.1128 58.5278 68.2221C60.1978 69.0342 62.0319 69.4523 63.8889 69.4443C65.4818 69.5217 67.0739 69.2748 68.5686 68.7186C70.0633 68.1623 71.4294 67.3083 72.5842 66.2083C73.7389 65.1083 74.6583 63.7853 75.2864 62.3193C75.9146 60.8534 76.2385 59.2752 76.2385 57.6804C76.2385 56.0856 75.9146 54.5074 75.2864 53.0414C74.6583 51.5755 73.7389 50.2525 72.5842 49.1525C71.4294 48.0525 70.0633 47.1985 68.5686 46.6422C67.0739 46.086 65.4818 45.8391 63.8889 45.9165V45.9721Z" fill="#7990FB"/>
</g>
<defs>
<clipPath id="clip0_1_3436">
<rect width="100" height="100" fill="white"/>
</clipPath>
</defs>
</svg>
